<?xml version="1.0" encoding="UTF-8" standalone="no"?>
<svg
   viewBox="0 0 793.7007874015749 1122.5196850393702"
   width="793.7007874015749"
   height="1122.5196850393702"
   version="1.1"
   id="svg261"
   inkscape:version="1.3.2 (091e20e, 2023-11-25, custom)"
   sodipodi:docname="KAP140 Fascia Lettering for Laser.svg"
   xmlns:inkscape="http://www.inkscape.org/namespaces/inkscape"
   xmlns:sodipodi="http://sodipodi.sourceforge.net/DTD/sodipodi-0.dtd"
   xmlns="http://www.w3.org/2000/svg"
   xmlns:svg="http://www.w3.org/2000/svg">
  <sodipodi:namedview
     id="namedview261"
     pagecolor="#ffffff"
     bordercolor="#000000"
     borderopacity="0.25"
     inkscape:showpageshadow="2"
     inkscape:pageopacity="0.0"
     inkscape:pagecheckerboard="0"
     inkscape:deskcolor="#d1d1d1"
     showgrid="false"
     inkscape:zoom="3.2409232"
     inkscape:cx="405.28575"
     inkscape:cy="717.54246"
     inkscape:window-width="3840"
     inkscape:window-height="2054"
     inkscape:window-x="2869"
     inkscape:window-y="-11"
     inkscape:window-maximized="1"
     inkscape:current-layer="layer3" />
  <desc
     id="desc1">KAP140 Fascia Lettering.dxf - scale = 1.000000, origin = (0.000000, 0.000000), method = manual</desc>
  <defs
     id="defs4">
    <marker
       id="DistanceX"
       orient="auto"
       refX="0.0"
       refY="0.0"
       style="overflow:visible">
      <path
         d="M 3,-3 L -3,3 M 0,-5 L  0,5"
         style="stroke:#000000; stroke-width:0.5"
         id="path1" />
    </marker>
    <pattern
       id="Hatch"
       patternUnits="userSpaceOnUse"
       width="8"
       height="8"
       x="0"
       y="0">
      <path
         d="M8 4 l-4,4"
         stroke="#000000"
         stroke-width="0.25"
         linecap="square"
         id="path2" />
      <path
         d="M6 2 l-4,4"
         stroke="#000000"
         stroke-width="0.25"
         linecap="square"
         id="path3" />
      <path
         d="M4 0 l-4,4"
         stroke="#000000"
         stroke-width="0.25"
         linecap="square"
         id="path4" />
    </pattern>
    <symbol
       id="*MODEL_SPACE" />
    <symbol
       id="*PAPER_SPACE" />
  </defs>
  <g
     inkscape:groupmode="layer"
     inkscape:label="1"
     id="g16">
    <path
       style="fill:none;stroke:#000000"
       d="M 79.606946,593.30524 H 703.60695"
       id="path13" />
    <path
       style="fill:none;stroke:#000000"
       d="m 703.60695,593.30524 v 182.4"
       id="path14" />
    <path
       style="fill:none;stroke:#000000"
       d="M 703.60695,775.70524 H 79.606946"
       id="path15" />
    <path
       style="fill:none;stroke:#000000"
       d="m 79.606946,775.70524 v -182.4"
       id="path16" />
  </g>
  <g
     inkscape:groupmode="layer"
     inkscape:label="0"
     id="g261">
    <path
       d="M 193.82062,715.2811 V 635.15511 H 491.6474 v 80.12599 z"
       style="fill:none;stroke:#000000"
       id="path17" />
    <path
       d="m 668.75238,721.40834 a 14.173228,14.173228 0 0 0 -28.34646,0 14.173228,14.173228 0 0 0 28.34646,0 z"
       style="fill:none;stroke:#000000"
       id="path18" />
    <path
       d="m 643.38736,645.20402 v -17.38583 a 2.645669,2.645669 0 0 1 2.64567,-2.64567 h 32.50394 a 2.645669,2.645669 0 0 1 2.64566,2.64567 v 17.38583 a 2.645669,2.645669 0 0 1 -2.64566,2.64566 h -32.50394 a 2.645669,2.645669 0 0 1 -2.64567,-2.64566 z"
       style="fill:none;stroke:#000000"
       id="path19" />
    <path
       d="m 585.78736,645.20402 v -17.38583 a 2.645669,2.645669 0 0 1 2.64567,-2.64567 h 32.50394 a 2.645669,2.645669 0 0 1 2.64566,2.64567 v 17.38583 a 2.645669,2.645669 0 0 1 -2.64566,2.64566 h -32.50394 a 2.645669,2.645669 0 0 1 -2.64567,-2.64566 z"
       style="fill:none;stroke:#000000"
       id="path20" />
    <path
       d="m 547.38736,702.80402 v -17.38583 a 2.645669,2.645669 0 0 1 2.64567,-2.64567 h 32.50394 a 2.645669,2.645669 0 0 1 2.64566,2.64567 v 17.38583 a 2.645669,2.645669 0 0 1 -2.64566,2.64566 h -32.50394 a 2.645669,2.645669 0 0 1 -2.64567,-2.64566 z"
       style="fill:none;stroke:#000000"
       id="path21" />
    <path
       d="m 547.38736,750.80402 v -17.38583 a 2.645669,2.645669 0 0 1 2.64567,-2.64567 h 32.50394 a 2.645669,2.645669 0 0 1 2.64566,2.64567 v 17.38583 a 2.645669,2.645669 0 0 1 -2.64566,2.64566 h -32.50394 a 2.645669,2.645669 0 0 1 -2.64567,-2.64566 z"
       style="fill:none;stroke:#000000"
       id="path22" />
    <path
       d="m 460.98736,760.40402 v -17.38583 a 2.645669,2.645669 0 0 1 2.64567,-2.64567 h 32.50394 a 2.645669,2.645669 0 0 1 2.64566,2.64567 v 17.38583 a 2.645669,2.645669 0 0 1 -2.64566,2.64566 h -32.50394 a 2.645669,2.645669 0 0 1 -2.64567,-2.64566 z"
       style="fill:none;stroke:#000000"
       id="path23" />
    <path
       d="m 393.78736,760.40402 v -17.38583 a 2.645669,2.645669 0 0 1 2.64567,-2.64567 h 32.50394 a 2.645669,2.645669 0 0 1 2.64566,2.64567 v 17.38583 a 2.645669,2.645669 0 0 1 -2.64566,2.64566 h -32.50394 a 2.645669,2.645669 0 0 1 -2.64567,-2.64566 z"
       style="fill:none;stroke:#000000"
       id="path24" />
    <path
       d="m 326.58736,760.40402 v -17.38583 a 2.645669,2.645669 0 0 1 2.64567,-2.64567 h 32.50394 a 2.645669,2.645669 0 0 1 2.64566,2.64567 v 17.38583 a 2.645669,2.645669 0 0 1 -2.64566,2.64566 h -32.50394 a 2.645669,2.645669 0 0 1 -2.64567,-2.64566 z"
       style="fill:none;stroke:#000000"
       id="path25" />
    <path
       d="m 259.38736,760.40402 v -17.38583 a 2.645669,2.645669 0 0 1 2.64567,-2.64567 h 32.50394 a 2.645669,2.645669 0 0 1 2.64566,2.64567 v 17.38583 a 2.645669,2.645669 0 0 1 -2.64566,2.64566 h -32.50394 a 2.645669,2.645669 0 0 1 -2.64567,-2.64566 z"
       style="fill:none;stroke:#000000"
       id="path26" />
    <path
       d="m 192.18736,760.40402 v -17.38583 a 2.645669,2.645669 0 0 1 2.64567,-2.64567 h 32.50394 a 2.645669,2.645669 0 0 1 2.64566,2.64567 v 17.38583 a 2.645669,2.645669 0 0 1 -2.64566,2.64566 h -32.50394 a 2.645669,2.645669 0 0 1 -2.64567,-2.64566 z"
       style="fill:none;stroke:#000000"
       id="path27" />
    <path
       d="m 105.78736,760.40402 v -17.38583 a 2.645669,2.645669 0 0 1 2.64567,-2.64567 h 32.50394 a 2.645669,2.645669 0 0 1 2.64566,2.64567 v 17.38583 a 2.645669,2.645669 0 0 1 -2.64566,2.64566 h -32.50394 a 2.645669,2.645669 0 0 1 -2.64567,-2.64566 z"
       style="fill:none;stroke:#000000"
       id="path28" />
    <path
       d="M 79.606946,593.30492 V 775.70493 H 703.60697 V 593.30492 Z"
       style="fill:none;stroke:#000000"
       id="path29" />
    <path
       d="m 548.26837,677.43721 h 35.90551 a 7.559055,7.559055 0 0 1 7.55906,7.55905 V 751.138 a 7.559055,7.559055 0 0 1 -7.55906,7.55905 h -35.90551 a 7.559055,7.559055 0 0 1 -7.55905,-7.55905 v -66.14174 a 7.559055,7.559055 0 0 1 7.55905,-7.55905 z"
       style="fill:none;stroke:#000000"
       id="path30" />
    <path
       d="M 584.17388,762.47658 A 11.338583,11.338583 0 0 0 595.51247,751.138 v -66.14174 a 11.338583,11.338583 0 0 0 -11.33859,-11.33858 h -35.90551 a 11.338583,11.338583 0 0 0 -11.33858,11.33858 V 751.138 a 11.338583,11.338583 0 0 0 11.33858,11.33858 z"
       style="fill:none;stroke:#000000"
       id="path31" />
    <path
       d="M 699.82744,771.9254 H 83.386474 V 597.08445 H 699.82744 Z"
       style="fill:none;stroke:#000000"
       id="path32" />
    <path
       d="M 696.04791,768.14587 H 87.166001 V 600.86398 H 696.04791 Z"
       style="fill:none;stroke:#000000"
       id="path33" />
  </g>
  <g
     inkscape:groupmode="layer"
     id="layer3"
     inkscape:label="LASER_LAYER">
    <rect
       style="fill:none;stroke:#ff0000;stroke-width:3.77952756;stroke-opacity:1;stroke-dasharray:none"
       id="rect262"
       width="612.63409"
       height="170.86183"
       x="85.623749"
       y="599.44342" />
    <path
       d="m 99.595355,622.66211 1.634115,-9.54425 h 2.68228 q 1.07422,0 1.52994,0.13672 0.70964,0.20833 1.09375,0.77474 0.38412,0.5664 0.38412,1.39973 0,0.83985 -0.3711,1.40625 -0.37109,0.56641 -1.11328,0.85937 0.57943,0.19532 0.92448,0.70313 0.35156,0.50781 0.35156,1.18489 0,0.92448 -0.42317,1.67317 -0.41667,0.7487 -1.09375,1.08073 -0.67057,0.32552 -1.90755,0.32552 z m 2.584625,-5.69009 h 1.23047 q 0.80729,0 1.15885,-0.13021 0.35156,-0.13021 0.55338,-0.44922 0.20183,-0.31901 0.20183,-0.72916 0,-0.33203 -0.14974,-0.5599 -0.14974,-0.23437 -0.37761,-0.31249 -0.22786,-0.0781 -0.98307,-0.0781 h -1.24348 z m -0.70963,4.15363 h 1.54948 q 0.91145,0 1.24999,-0.1302 0.33854,-0.13021 0.56641,-0.47526 0.22786,-0.35156 0.22786,-0.78776 0,-0.51432 -0.29948,-0.80729 -0.29948,-0.29297 -0.94401,-0.29297 h -1.92707 z m 6.02863,1.53646 1.63411,-9.54425 h 5.80077 l -0.27344,1.59505 h -4.18619 l -0.37109,2.16796 h 4.04947 l -0.27344,1.59505 h -4.04947 l -0.44921,2.59114 h 4.49868 l -0.26692,1.59505 z m 13.54814,0 h -1.5039 l -2.11588,-6.41274 -1.09375,6.41274 h -1.5039 l 1.63411,-9.54425 h 1.5039 l 2.11588,6.38671 1.09375,-6.38671 h 1.5039 z m 1.66016,0 1.63411,-9.54425 h 2.10937 q 1.10025,0 1.49088,0.0912 0.65755,0.16276 1.14583,0.64453 0.49479,0.48177 0.78125,1.28906 0.28645,0.80078 0.28645,1.92708 0,1.18489 -0.29296,2.194 -0.29297,1.0026 -0.82682,1.75781 -0.52735,0.74869 -1.09375,1.09375 -0.56641,0.33854 -1.18489,0.46223 -0.40365,0.0846 -1.28906,0.0846 z m 1.87499,-1.53646 h 0.8138 q 0.89193,0 1.25,-0.12369 0.46875,-0.15625 0.8789,-0.63802 0.41016,-0.48828 0.70964,-1.34765 0.29947,-0.86589 0.29947,-1.9987 0,-0.9375 -0.24739,-1.47135 -0.24089,-0.53385 -0.65104,-0.72265 -0.29297,-0.13021 -1.02213,-0.13021 h -0.93099 z m 5.92446,1.53646 1.63412,-9.54425 h 1.60806 l -1.63411,9.54425 z m 4.41405,0 h -2.08332 l 3.45702,-4.83072 -1.94661,-4.71353 h 1.68619 l 0.75521,1.79036 q 0.41015,0.96354 0.59245,1.49739 0.65104,-0.97004 1.10025,-1.58853 l 1.23047,-1.69922 h 2.01822 l -3.57421,5.02603 1.92708,4.51822 h -1.8164 l -0.58594,-1.4388 q -0.46874,-1.15234 -0.61197,-1.63411 -0.20183,0.3776 -1.07422,1.58854 z m 5.05859,0.16276 3.87368,-9.86977 h 1.07422 l -3.87369,9.86977 z m 3.9453,-0.16276 1.63411,-9.54425 h 1.60807 l -0.6901,4.05598 3.61978,-4.05598 h 2.16145 l -3.52212,3.74348 2.57812,5.80077 h -1.81641 l -1.93358,-4.54426 -1.51693,1.62109 -0.5013,2.92317 z m 7.84503,0 1.63411,-9.54425 h 1.60807 l -1.63411,9.54425 z m 9.36196,0 h -1.5039 l -2.11588,-6.41274 -1.09375,6.41274 h -1.5039 l 1.63411,-9.54425 h 1.5039 l 2.11588,6.38671 1.09375,-6.38671 h 1.5039 z m 5.99607,-5.09764 h 3.49609 l -0.70312,4.09504 q -0.65104,0.52083 -1.55599,0.84635 -0.90494,0.31901 -1.79687,0.31901 -1.54947,0 -2.33723,-0.92448 -0.94401,-1.10677 -0.94401,-3.0664 0,-1.70572 0.64453,-3.1315 0.65104,-1.43229 1.59505,-2.08984 0.95051,-0.65755 2.12239,-0.65755 1.28906,0 2.13541,0.74219 0.84635,0.74218 1.1263,2.26562 l -1.49739,0.20833 q -0.39714,-1.6276 -1.76432,-1.6276 -0.74219,0 -1.36719,0.45573 -0.625,0.44922 -1.03515,1.46484 -0.40365,1.01562 -0.40365,2.36978 0,1.21745 0.45573,1.78385 0.45573,0.56641 1.3151,0.56641 0.48177,0 0.9375,-0.14323 0.61849,-0.1888 1.05469,-0.46224 l 0.24739,-1.41927 h -1.99869 z"
       id="text261"
       style="font-style:italic;font-weight:bold;font-stretch:condensed;font-size:13.3333px;line-height:4.44444px;font-family:Arial;-inkscape-font-specification:'Arial Bold Italic Condensed';text-align:center;letter-spacing:0px;word-spacing:0px;text-anchor:middle;fill:#ff0000;stroke:#ff0000;stroke-width:0.00377953;stroke-opacity:0.463807"
       aria-label="BENDIX/KING" />
    <path
       style="font-weight:bold;font-stretch:condensed;font-size:13.3333px;line-height:4.44444px;font-family:Arial;-inkscape-font-specification:'Arial Bold Condensed';text-align:center;letter-spacing:0px;word-spacing:0px;text-anchor:middle;fill:#ff0000;stroke:#ff0000;stroke-width:0.00377953;stroke-opacity:0.463807"
       d="m 115.1487,637.31842 v -9.54425 h 1.57552 v 4.23827 l 3.1966,-4.23827 h 2.12891 l -2.94922,3.71744 3.10547,5.82681 h -2.04427 l -2.15494,-4.47915 -1.28255,1.59504 v 2.88411 z m 14.92835,0 h -1.71875 l -0.68359,-2.16796 h -3.12499 l -0.64453,2.16796 h -1.67968 l 3.04686,-9.54425 h 1.67318 z m -2.91015,-3.77603 -1.07422,-3.54166 -1.06119,3.54166 z m 3.74348,3.77603 v -9.54425 h 2.53906 q 1.41926,0 1.85546,0.13672 0.69661,0.22136 1.14583,0.94401 0.45573,0.72265 0.45573,1.86197 0,1.03516 -0.39063,1.73828 -0.39062,0.69661 -0.97656,0.98307 -0.58593,0.27995 -2.01822,0.27995 h -1.03515 v 3.60025 z m 1.57552,-7.92967 v 2.70833 h 0.87239 q 0.8789,0 1.1914,-0.1237 0.31901,-0.1237 0.52084,-0.44271 0.20182,-0.32552 0.20182,-0.79426 0,-0.47526 -0.20833,-0.80078 -0.20834,-0.32552 -0.51433,-0.4362 -0.30599,-0.11068 -1.29557,-0.11068 z m 9.22523,7.92967 h -1.49739 v -6.89451 q -0.83984,0.944 -1.9401,1.38671 v -1.66015 q 0.625,-0.25391 1.29557,-0.90495 0.67057,-0.65755 0.93099,-1.51041 h 1.21093 z m 5.18228,0 v -1.92057 h -3.20311 v -1.60156 l 3.39191,-6.06118 h 1.26302 v 6.05467 h 0.97005 v 1.60807 h -0.97005 v 1.92057 z m 0,-3.52864 v -3.26171 l -1.79687,3.26171 z m 5.67707,-6.05467 q 1.13932,0 1.84245,1.08724 0.70312,1.08072 0.70312,3.78905 0,2.70182 -0.70312,3.78905 -0.70313,1.08073 -1.83594,1.08073 -1.13932,0 -1.84244,-1.07422 -0.70312,-1.07421 -0.70312,-3.81509 0,-2.6888 0.70312,-3.76952 0.70312,-1.08724 1.83593,-1.08724 z m 0,1.51692 q -0.4427,0 -0.70963,0.58594 -0.26042,0.58594 -0.26042,2.77343 0,2.1875 0.26042,2.77343 0.26693,0.57943 0.70963,0.57943 0.44922,0 0.70964,-0.58594 0.26041,-0.58593 0.26041,-2.76692 0,-2.18749 -0.26041,-2.77343 -0.26042,-0.58594 -0.70964,-0.58594 z"
       id="text262"
       aria-label="KAP140" />
    <path
       style="fill:#ff0000;stroke:#ff0000;stroke-width:0.37795276;stroke-dasharray:none;stroke-opacity:1;fill-opacity:1"
       d="m 546.1746,673.81029 c -2.46342,0.62884 -4.81468,1.87005 -6.45806,3.84629 -1.4476,1.694 -2.38959,3.82258 -2.72875,6.01211 10e-4,22.16524 -0.10045,44.33078 0.006,66.49585 -0.13174,2.79509 0.55618,5.70541 2.38008,7.88501 2.11263,2.67562 5.44854,4.48733 8.90683,4.31156 12.51131,0.10289 25.02352,0.0133 37.53518,0.0258 3.44669,-0.65574 6.65481,-2.77692 8.30505,-5.91695 0.92053,-1.64661 1.31894,-3.53573 1.2427,-5.41438 0.10388,-15.48725 0.0127,-30.97532 0.024,-46.46289 -0.021,-7.24193 0.0184,-14.48848 -0.0404,-21.72752 -0.63469,-2.48629 -1.90165,-4.85751 -3.91905,-6.4906 -1.65648,-1.36201 -3.69497,-2.35053 -5.83089,-2.58733 -13.12636,0.011 -26.2561,-0.0221 -39.38035,0.0166 z m 13.09148,3.59401 c 8.54149,0.0307 17.09915,-0.0635 25.62983,0.0767 2.14458,0.0833 4.09655,1.34872 5.37356,3.03109 1.01451,1.39785 1.65262,3.12427 1.48188,4.86389 -0.0201,21.39474 0.0446,42.78973 -0.0439,64.1843 -0.0606,1.60278 0.1641,3.26413 -0.64125,4.73499 -1.08019,2.27029 -3.28615,4.0443 -5.82362,4.31932 -6.9329,0.16995 -13.88775,0.0573 -20.8305,0.0876 -5.71013,-0.0389 -11.4805,0.0768 -17.14973,-0.12706 -2.05354,-0.0712 -3.92992,-1.3593 -5.12067,-2.97478 -0.6948,-1.04805 -1.32545,-2.24497 -1.42666,-3.50453 0.004,-22.14174 -0.096,-44.28378 0.0113,-66.42533 -0.10266,-1.73647 0.21171,-3.5885 1.33438,-4.98471 0.8837,-1.15823 1.98177,-2.17404 3.3429,-2.73632 1.40915,-0.62338 3.01486,-0.39943 4.51399,-0.50697 3.1069,-0.0454 6.23461,-0.0339 9.34854,-0.0382 z"
       id="path262" />
  </g>
</svg>
