0
SECTION
2
HEADER
9
$INSUNITS
70
4
9
$ACADVER
1
AC1014
9
$HANDSEED
5
FFFF
0
ENDSEC
0
SECTION
2
TABLES
0
TABLE
2
VPORT
5
8
100
AcDbSymbolTable
0
ENDTAB
0
TABLE
2
LTYPE
5
5
100
AcDbSymbolTable
0
LTYPE
5
14
100
AcDbSymbolTableRecord
100
AcDbLinetypeTableRecord
2
BYBLOCK
70
0
0
LTYPE
5
15
100
AcDbSymbolTableRecord
100
AcDbLinetypeTableRecord
2
BYLAYER
70
0
0
LTYPE
5
16
100
AcDbSymbolTableRecord
100
AcDbLinetypeTableRecord
2
DASHED
70
0
3
Dashed __ __ __ __ __ __ __ __ __ __ __ __ __ _
72
65
73
2
40
0.75
49
0.5
74
0
49
-0.25
74
0
0
ENDTAB
0
TABLE
2
LAYER
5
2
100
AcDbSymbolTable
70
3
0
LAYER
5
50
100
AcDbSymbolTableRecord
100
AcDbLayerTableRecord
2
1
70
0
62
7
6
DASHED
0
LAYER
5
51
100
AcDbSymbolTableRecord
100
AcDbLayerTableRecord
2
0
70
0
62
7
6
CONTINUOUS
0
ENDTAB
0
TABLE
2
STYLE
5
3
100
AcDbSymbolTable
70
1
0
STYLE
5
11
100
AcDbSymbolTableRecord
100
AcDbTextStyleTableRecord
2
STANDARD
70
0
0
ENDTAB
0
TABLE
2
VIEW
5
6
100
AcDbSymbolTable
70
0
0
ENDTAB
0
TABLE
2
UCS
5
7
100
AcDbSymbolTable
70
0
0
ENDTAB
0
TABLE
2
APPID
5
9
100
AcDbSymbolTable
70
2
0
APPID
5
12
100
AcDbSymbolTableRecord
100
AcDbRegAppTableRecord
2
ACAD
70
0
0
ENDTAB
0
TABLE
2
DIMSTYLE
5
A
100
AcDbSymbolTable
70
1
0
ENDTAB
0
TABLE
2
BLOCK_RECORD
5
1
100
AcDbSymbolTable
70
1
0
BLOCK_RECORD
5
1F
100
AcDbSymbolTableRecord
100
AcDbBlockTableRecord
2
*MODEL_SPACE
0
BLOCK_RECORD
5
1B
100
AcDbSymbolTableRecord
100
AcDbBlockTableRecord
2
*PAPER_SPACE
0
ENDTAB
0
ENDSEC
0
SECTION
2
BLOCKS
0
BLOCK
5
20
100
AcDbEntity
100
AcDbBlockBegin
2
*MODEL_SPACE
0
ENDBLK
5
21
100
AcDbEntity
100
AcDbBlockEnd
0
BLOCK
5
1C
100
AcDbEntity
100
AcDbBlockBegin
2
*PAPER_SPACE
0
ENDBLK
5
1D
100
AcDbEntity
100
AcDbBlockEnd
0
ENDSEC
0
SECTION
2
ENTITIES
0
POINT
5
100
100
AcDbEntity
8
0
100
AcDbPoint
10
-4.3429007988323871
20
3.8083660995388238
30
0
0
POINT
5
101
100
AcDbEntity
8
0
100
AcDbPoint
10
-17.042900798832385
20
3.8083660995388238
30
0
0
POINT
5
102
100
AcDbEntity
8
0
100
AcDbPoint
10
-29.742900798832387
20
3.8083660995388247
30
0
0
POINT
5
103
100
AcDbEntity
8
0
100
AcDbPoint
10
-14.502900798832387
20
3.8083660995388238
30
0
0
POINT
5
104
100
AcDbEntity
8
0
100
AcDbPoint
10
-11.962900798832388
20
3.8083660995388238
30
0
0
POINT
5
105
100
AcDbEntity
8
0
100
AcDbPoint
10
-9.4229007988323872
20
3.8083660995388238
30
0
0
POINT
5
106
100
AcDbEntity
8
0
100
AcDbPoint
10
-6.882900798832388
20
3.8083660995388238
30
-1.3877787807814457e-16
0
POINT
5
107
100
AcDbEntity
8
0
100
AcDbPoint
10
-4.3429007988323871
20
6.3483660995388247
30
0
0
POINT
5
108
100
AcDbEntity
8
0
100
AcDbPoint
10
-4.3429007988323871
20
8.888366099538823
30
0
0
POINT
5
109
100
AcDbEntity
8
0
100
AcDbPoint
10
-4.3429007988323871
20
11.428366099538822
30
0
0
POINT
5
110
100
AcDbEntity
8
0
100
AcDbPoint
10
-4.3429007988323871
20
13.968366099538825
30
0
0
POINT
5
111
100
AcDbEntity
8
0
100
AcDbPoint
10
-4.3429007988323871
20
16.508366099538826
30
0
0
POINT
5
112
100
AcDbEntity
8
0
100
AcDbPoint
10
-42.442900798832383
20
3.8083660995388255
30
0
0
POINT
5
113
100
AcDbEntity
8
0
100
AcDbPoint
10
-55.142900798832386
20
3.8083660995388255
30
0
0
POINT
5
114
100
AcDbEntity
8
0
100
AcDbPoint
10
-67.842900798832375
20
3.8083660995388269
30
0
0
POINT
5
115
100
AcDbEntity
8
0
100
AcDbPoint
10
-80.542900798832363
20
3.8083660995388269
30
-1.3877787807814457e-16
0
POINT
5
116
100
AcDbEntity
8
0
100
AcDbPoint
10
-93.24290079883238
20
3.8083660995388282
30
-1.3877787807814457e-16
0
POINT
5
117
100
AcDbEntity
8
0
100
AcDbPoint
10
-4.3429007988323871
20
29.208366099538836
30
0
0
POINT
5
118
100
AcDbEntity
8
0
100
AcDbPoint
10
-4.3429007988323898
20
41.908366099538831
30
0
0
POINT
5
119
100
AcDbEntity
8
0
100
AcDbPoint
10
-93.24290079883238
20
16.508366099538833
30
-1.3877787807814457e-16
0
POINT
5
120
100
AcDbEntity
8
0
100
AcDbPoint
10
-93.24290079883238
20
29.208366099538839
30
-1.3877787807814457e-16
0
POINT
5
121
100
AcDbEntity
8
0
100
AcDbPoint
10
-80.542900798832363
20
29.208366099538839
30
-1.3877787807814457e-16
0
POINT
5
122
100
AcDbEntity
8
0
100
AcDbPoint
10
-67.842900798832375
20
29.208366099538839
30
-1.3877787807814457e-16
0
POINT
5
123
100
AcDbEntity
8
0
100
AcDbPoint
10
-55.142900798832386
20
29.208366099538839
30
-1.3877787807814457e-16
0
POINT
5
124
100
AcDbEntity
8
0
100
AcDbPoint
10
-42.442900798832383
20
29.208366099538839
30
-1.3877787807814457e-16
0
POINT
5
125
100
AcDbEntity
8
0
100
AcDbPoint
10
-29.742900798832387
20
29.208366099538836
30
-1.3877787807814457e-16
0
POINT
5
126
100
AcDbEntity
8
0
100
AcDbPoint
10
-17.042900798832385
20
29.208366099538836
30
-1.3877787807814457e-16
0
POINT
5
127
100
AcDbEntity
8
0
100
AcDbPoint
10
-146.58290079883238
20
3.8083660995388313
30
0
0
POINT
5
128
100
AcDbEntity
8
0
100
AcDbPoint
10
-146.58290079883238
20
16.508366099538833
30
0
0
POINT
5
129
100
AcDbEntity
8
0
100
AcDbPoint
10
-146.58290079883238
20
29.208366099538843
30
-1.3877787807814457e-16
0
POINT
5
130
100
AcDbEntity
8
0
100
AcDbPoint
10
-146.58290079883238
20
41.908366099538839
30
0
0
POINT
5
131
100
AcDbEntity
8
0
100
AcDbPoint
10
-133.88290079883237
20
41.908366099538839
30
0
0
POINT
5
132
100
AcDbEntity
8
0
100
AcDbPoint
10
-136.42290079883236
20
41.908366099538839
30
0
0
POINT
5
133
100
AcDbEntity
8
0
100
AcDbPoint
10
-138.96290079883238
20
41.908366099538839
30
0
0
POINT
5
134
100
AcDbEntity
8
0
100
AcDbPoint
10
-141.50290079883237
20
41.908366099538839
30
0
0
POINT
5
135
100
AcDbEntity
8
0
100
AcDbPoint
10
-144.04290079883236
20
41.908366099538839
30
1.3877787807814457e-16
0
POINT
5
136
100
AcDbEntity
8
0
100
AcDbPoint
10
-146.58290079883238
20
39.368366099538846
30
0
0
POINT
5
137
100
AcDbEntity
8
0
100
AcDbPoint
10
-146.58290079883238
20
34.288366099538841
30
0
0
POINT
5
138
100
AcDbEntity
8
0
100
AcDbPoint
10
-146.58290079883238
20
36.82836609953884
30
0
0
POINT
5
139
100
AcDbEntity
8
0
100
AcDbPoint
10
-131.34290079883237
20
41.908366099538839
30
1.3877787807814457e-16
0
POINT
5
140
100
AcDbEntity
8
0
100
AcDbPoint
10
-146.58290079883238
20
31.748366099538838
30
0
0
POINT
5
141
100
AcDbEntity
8
0
100
AcDbPoint
10
-164.36290079883236
20
46.988366099538837
30
0
0
POINT
5
142
100
AcDbEntity
8
0
100
AcDbPoint
10
-161.82290079883239
20
46.988366099538837
30
1.3877787807814457e-16
0
POINT
5
143
100
AcDbEntity
8
0
100
AcDbPoint
10
-164.36290079883236
20
44.448366099538845
30
0
0
POINT
5
144
100
AcDbEntity
8
0
100
AcDbPoint
10
-164.36290079883236
20
3.8083660995388326
30
0
0
POINT
5
145
100
AcDbEntity
8
0
100
AcDbPoint
10
-164.36290079883236
20
6.3483660995388336
30
0
0
POINT
5
146
100
AcDbEntity
8
0
100
AcDbPoint
10
-4.3429007988323898
20
46.98836609953883
30
0
0
POINT
5
147
100
AcDbEntity
8
0
100
AcDbPoint
10
-6.8829007988323898
20
46.98836609953883
30
0
0
POINT
5
148
100
AcDbEntity
8
0
100
AcDbPoint
10
-9.4229007988323907
20
46.98836609953883
30
1.3877787807814457e-16
0
POINT
5
149
100
AcDbEntity
8
0
100
AcDbPoint
10
-4.3429007988323898
20
39.368366099538832
30
0
0
POINT
5
150
100
AcDbEntity
8
0
100
AcDbPoint
10
-4.3429007988323898
20
44.448366099538831
30
0
0
POINT
5
151
100
AcDbEntity
8
0
100
AcDbPoint
10
-11.96290079883239
20
46.98836609953883
30
0
0
POINT
5
152
100
AcDbEntity
8
0
100
AcDbPoint
10
-159.28290079883234
20
46.988366099538837
30
0
0
POINT
5
153
100
AcDbEntity
8
0
100
AcDbPoint
10
-156.74290079883232
20
46.988366099538837
30
1.3877787807814457e-16
0
POINT
5
154
100
AcDbEntity
8
0
100
AcDbPoint
10
-154.20290079883236
20
46.988366099538837
30
0
0
POINT
5
155
100
AcDbEntity
8
0
100
AcDbPoint
10
-164.36290079883236
20
41.908366099538839
30
0
0
POINT
5
156
100
AcDbEntity
8
0
100
AcDbPoint
10
-164.36290079883236
20
39.368366099538846
30
0
0
POINT
5
157
100
AcDbEntity
8
0
100
AcDbPoint
10
-164.36290079883236
20
36.82836609953884
30
0
0
POINT
5
158
100
AcDbEntity
8
0
100
AcDbPoint
10
-164.36290079883236
20
8.8883660995388318
30
0
0
POINT
5
159
100
AcDbEntity
8
0
100
AcDbPoint
10
-164.36290079883236
20
11.428366099538831
30
0
0
POINT
5
160
100
AcDbEntity
8
0
100
AcDbPoint
10
-161.82290079883239
20
3.8083660995388313
30
0
0
POINT
5
161
100
AcDbEntity
8
0
100
AcDbPoint
10
-156.74290079883232
20
3.8083660995388313
30
0
0
POINT
5
162
100
AcDbEntity
8
0
100
AcDbPoint
10
-154.20290079883236
20
3.8083660995388313
30
0
0
POINT
5
163
100
AcDbEntity
8
0
100
AcDbPoint
10
-159.28290079883234
20
3.8083660995388313
30
0
0
CIRCLE
5
164
100
AcDbEntity
8
0
100
AcDbCircle
10
-160.48897312918527
20
4.6003638699722647
30
0
40
1.6000000000000014
210
8.3008088133292396e-47
220
-4.2843171158132434e-78
230
1
0
CIRCLE
5
165
100
AcDbEntity
8
0
100
AcDbCircle
10
-5.3723340641765489
20
15.365917296550966
30
0
40
1.6000000000000003
210
6.1629758220392382e-33
220
-3.1809120523661218e-64
230
1
0
CIRCLE
5
166
100
AcDbEntity
8
0
100
AcDbCircle
10
-160.57482384860603
20
43.869934945470206
30
0
40
1.6000000000000014
210
8.3008088133292396e-47
220
-4.2843171158132434e-78
230
1
0
CIRCLE
5
167
100
AcDbEntity
8
0
100
AcDbCircle
10
-5.3233491275427145
20
43.214715569380502
30
0
40
1.6000000000000025
210
8.3008088133292405e-47
220
1.9721522630525295e-31
230
1
0
LWPOLYLINE
5
168
100
AcDbEntity
8
0
100
AcDbPolyline
90
8
70
1
43
0.0
10
-23.28423181733865
20
44.309232650148985
10
-23.28423181733865
20
39.147820887075014
10
-17.815484670745917
20
39.147820887075014
10
-17.859081522486456
20
16.366759909403701
10
-23.28423181733865
20
16.366759909403701
10
-23.28423181733865
20
11.363193254262324
10
-113.91863903044012
20
11.363193254262312
10
-113.91863903044012
20
44.309232650148985
0
LWPOLYLINE
5
169
100
AcDbEntity
8
0
100
AcDbPolyline
90
4
70
1
43
0.0
10
-165.10000000000002
20
-4.9203192033547817e-16
10
0
20
-1.7417897932828424e-15
10
-2.3679676477953925e-17
20
48.259999999999998
10
-165.10000000000002
20
48.259999999999998
0
CIRCLE
5
170
100
AcDbEntity
8
0
100
AcDbCircle
10
-160.48897312918527
20
4.6003638699722664
30
0
40
1.6000000000000014
210
0
220
0
230
1
0
CIRCLE
5
171
100
AcDbEntity
8
0
100
AcDbCircle
10
-5.3723340641765489
20
15.365917296550968
30
0
40
1.6000000000000003
210
0
220
0
230
1
0
CIRCLE
5
172
100
AcDbEntity
8
0
100
AcDbCircle
10
-160.57482384860603
20
43.869934945470206
30
0
40
1.6000000000000014
210
0
220
0
230
1
0
CIRCLE
5
173
100
AcDbEntity
8
0
100
AcDbCircle
10
-5.3233491275427145
20
43.214715569380502
30
0
40
1.6000000000000025
210
0
220
0
230
1
0
LWPOLYLINE
5
174
100
AcDbEntity
8
0
100
AcDbPolyline
90
8
70
1
43
0.0
10
-23.28423181733865
20
11.363193254262328
10
-23.28423181733865
20
16.366759909403704
10
-17.859081522486456
20
16.366759909403704
10
-17.815484670745917
20
39.147820887075014
10
-23.28423181733865
20
39.147820887075014
10
-23.28423181733865
20
44.309232650148985
10
-113.91863903044012
20
44.309232650148985
10
-113.91863903044013
20
11.363193254262312
0
LWPOLYLINE
5
175
100
AcDbEntity
8
0
100
AcDbPolyline
90
4
70
1
43
0.0
10
-165.10000000000002
20
48.259999999999998
10
0
20
48.259999999999998
10
1.4831184688730643e-17
20
0
10
-165.10000000000002
20
1.4378932021852041e-15
0
ENDSEC
0
SECTION
2
OBJECTS
0
DICTIONARY
5
C
100
AcDbDictionary
3
ACAD_GROUP
350
D
3
ACAD_MLINESTYLE
350
17
0
DICTIONARY
5
D
100
AcDbDictionary
0
DICTIONARY
5
1A
330
C
100
AcDbDictionary
0
DICTIONARY
5
17
100
AcDbDictionary
0
ENDSEC
0
EOF
