<?xml version="1.0" encoding="UTF-8" standalone="no"?>
<!-- Created with Inkscape (http://www.inkscape.org/) -->

<svg
   width="210mm"
   height="297mm"
   viewBox="0 0 210 297"
   version="1.1"
   id="svg1"
   xml:space="preserve"
   inkscape:version="1.3.2 (091e20e, 2023-11-25, custom)"
   sodipodi:docname="ButtonLetteringMatrix.svg"
   xmlns:inkscape="http://www.inkscape.org/namespaces/inkscape"
   xmlns:sodipodi="http://sodipodi.sourceforge.net/DTD/sodipodi-0.dtd"
   xmlns="http://www.w3.org/2000/svg"
   xmlns:svg="http://www.w3.org/2000/svg"><sodipodi:namedview
     id="namedview1"
     pagecolor="#ffffff"
     bordercolor="#000000"
     borderopacity="0.25"
     inkscape:showpageshadow="2"
     inkscape:pageopacity="0.0"
     inkscape:pagecheckerboard="0"
     inkscape:deskcolor="#d1d1d1"
     inkscape:document-units="mm"
     inkscape:zoom="2.2916787"
     inkscape:cx="-107.78125"
     inkscape:cy="752.9415"
     inkscape:window-width="3840"
     inkscape:window-height="2054"
     inkscape:window-x="2869"
     inkscape:window-y="-11"
     inkscape:window-maximized="1"
     inkscape:current-layer="layer2" /><defs
     id="defs1"><marker
       id="DistanceX"
       orient="auto"
       refX="0.0"
       refY="0.0"
       style="overflow:visible"><path
         d="M 3,-3 L -3,3 M 0,-5 L  0,5"
         style="stroke:#000000; stroke-width:0.5"
         id="path1" /></marker><pattern
       id="Hatch"
       patternUnits="userSpaceOnUse"
       width="8"
       height="8"
       x="0"
       y="0"><path
         d="M8 4 l-4,4"
         stroke="#000000"
         stroke-width="0.25"
         linecap="square"
         id="path2" /><path
         d="M6 2 l-4,4"
         stroke="#000000"
         stroke-width="0.25"
         linecap="square"
         id="path3" /><path
         d="M4 0 l-4,4"
         stroke="#000000"
         stroke-width="0.25"
         linecap="square"
         id="path4" /></pattern><symbol
       id="*MODEL_SPACE" /><symbol
       id="*PAPER_SPACE" /></defs><g
     inkscape:label="REFERENCE_LAYER"
     inkscape:groupmode="layer"
     id="layer1"><g
       id="g1"
       transform="matrix(0.26458333,0,0,0.26458333,54.974437,-76.280096)"><g
         inkscape:label="1"
         id="g4" /><g
         inkscape:label="0"
         id="g27"><path
           d="M -28.346457,1217.0079 V 1099.8425 H 168.18898 v 117.1654 z"
           style="fill:none;stroke:#000000"
           id="path5" /><path
           d="m -35.905512,1092.2835 v 132.2834 H 175.74803 v -132.2834 z"
           style="fill:none;stroke:#000000"
           id="path6" /><path
           d="m 168.18898,1118.7402 h -14.17323 v -4.7245 a 1.889764,1.889764 0 0 0 -1.88977,-1.8897 h -12.28346 v -12.2835 h 28.34646 z"
           style="fill:none;stroke:#000000"
           id="path7" /><path
           d="m 154.01575,1126.2992 v 4.7244 a 1.889764,1.889764 0 0 1 -1.88977,1.8898 h -12.28346 v 17.0079 h 12.28346 a 1.889764,1.889764 0 0 1 1.88977,1.8897 v 4.7244 h 14.17323 v -30.2362 z"
           style="fill:none;stroke:#000000"
           id="path8" /><path
           d="m 120,1112.126 h 12.28346 v -12.2835 H 94.488189 v 12.2835 h 12.283461 a 1.889764,1.889764 0 0 1 1.88977,1.8897 v 4.7245 h 9.44882 v -4.7245 A 1.889764,1.889764 0 0 1 120,1112.126 Z"
           style="fill:none;stroke:#000000"
           id="path9" /><path
           d="m 118.11024,1131.0236 v -4.7244 h -9.44882 v 4.7244 a 1.889764,1.889764 0 0 1 -1.88977,1.8898 H 94.488189 v 17.0079 h 12.283461 a 1.889764,1.889764 0 0 1 1.88977,1.8897 v 4.7244 h 9.44882 v -4.7244 A 1.889764,1.889764 0 0 1 120,1149.9213 h 12.28346 v -17.0079 H 120 a 1.889764,1.889764 0 0 1 -1.88976,-1.8898 z"
           style="fill:none;stroke:#000000"
           id="path10" /><path
           d="m -3.779528,1099.8425 h -24.566929 v 18.8977 h 10.393701 v -4.7245 a 1.889764,1.889764 0 0 1 1.889764,-1.8897 h 12.283464 z"
           style="fill:none;stroke:#000000"
           id="path11" /><path
           d="M 41.574803,1099.8425 H 3.779528 v 12.2835 h 12.283464 a 1.889764,1.889764 0 0 1 1.889764,1.8897 v 4.7245 h 9.448819 v -4.7245 a 1.889764,1.889764 0 0 1 1.889764,-1.8897 h 12.283464 z"
           style="fill:none;stroke:#000000"
           id="path12" /><path
           d="M 86.929134,1099.8425 H 49.133858 v 12.2835 h 12.283465 a 1.889764,1.889764 0 0 1 1.889764,1.8897 v 4.7245 h 9.448819 v -4.7245 a 1.889764,1.889764 0 0 1 1.889763,-1.8897 h 12.283465 z"
           style="fill:none;stroke:#000000"
           id="path13" /><path
           d="m 154.01575,1164.0945 v 4.7244 a 1.889764,1.889764 0 0 1 -1.88977,1.8898 h -12.28346 v 17.0078 h 12.28346 a 1.889764,1.889764 0 0 1 1.88977,1.8898 v 4.7244 h 14.17323 v -30.2362 z"
           style="fill:none;stroke:#000000"
           id="path14" /><path
           d="m 168.18898,1217.0079 v -15.1181 h -14.17323 v 4.7244 a 1.889764,1.889764 0 0 1 -1.88977,1.8897 h -12.28346 v 8.504 z"
           style="fill:none;stroke:#000000"
           id="path15" /><path
           d="M 132.28346,1170.7087 H 120 a 1.889764,1.889764 0 0 1 -1.88976,-1.8898 v -4.7244 h -9.44882 v 4.7244 a 1.889764,1.889764 0 0 1 -1.88977,1.8898 H 94.488189 v 17.0078 h 12.283461 a 1.889764,1.889764 0 0 1 1.88977,1.8898 v 4.7244 h 9.44882 v -4.7244 A 1.889764,1.889764 0 0 1 120,1187.7165 h 12.28346 z"
           style="fill:none;stroke:#000000"
           id="path16" /><path
           d="m 94.488189,1217.0079 h 37.795271 v -8.504 H 120 a 1.889764,1.889764 0 0 1 -1.88976,-1.8897 v -4.7244 h -9.44882 v 4.7244 a 1.889764,1.889764 0 0 1 -1.88977,1.8897 H 94.488189 Z"
           style="fill:none;stroke:#000000"
           id="path17" /><path
           d="m 49.133858,1217.0079 h 37.795276 v -8.504 H 74.645669 a 1.889764,1.889764 0 0 1 -1.889763,-1.8897 v -4.7244 h -9.448819 v 4.7244 a 1.889764,1.889764 0 0 1 -1.889764,1.8897 H 49.133858 Z"
           style="fill:none;stroke:#000000"
           id="path18" /><path
           d="m 3.779528,1217.0079 h 37.795275 v -8.504 H 29.291339 a 1.889764,1.889764 0 0 1 -1.889764,-1.8897 v -4.7244 h -9.448819 v 4.7244 a 1.889764,1.889764 0 0 1 -1.889764,1.8897 H 3.779528 Z"
           style="fill:none;stroke:#000000"
           id="path19" /><path
           d="m -28.346457,1217.0079 h 24.566929 v -8.504 h -12.283464 a 1.889764,1.889764 0 0 1 -1.889764,-1.8897 v -4.7244 h -10.393701 z"
           style="fill:none;stroke:#000000"
           id="path20" /><path
           d="m -17.952756,1131.0236 v -4.7244 h -10.393701 v 30.2362 h 10.393701 v -4.7244 a 1.889764,1.889764 0 0 1 1.889764,-1.8897 h 12.283464 v -17.0079 h -12.283464 a 1.889764,1.889764 0 0 1 -1.889764,-1.8898 z"
           style="fill:none;stroke:#000000"
           id="path21" /><path
           d="m -28.346457,1164.0945 v 30.2362 h 10.393701 v -4.7244 a 1.889764,1.889764 0 0 1 1.889764,-1.8898 h 12.283464 v -17.0078 h -12.283464 a 1.889764,1.889764 0 0 1 -1.889764,-1.8898 v -4.7244 z"
           style="fill:none;stroke:#000000"
           id="path22" /><path
           d="M 16.062992,1132.9134 H 3.779528 v 17.0079 h 12.283464 a 1.889764,1.889764 0 0 1 1.889764,1.8897 v 4.7244 h 9.448819 v -4.7244 a 1.889764,1.889764 0 0 1 1.889764,-1.8897 h 12.283464 v -17.0079 H 29.291339 a 1.889764,1.889764 0 0 1 -1.889764,-1.8898 v -4.7244 h -9.448819 v 4.7244 a 1.889764,1.889764 0 0 1 -1.889764,1.8898 z"
           style="fill:none;stroke:#000000"
           id="path23" /><path
           d="m 3.779528,1187.7165 h 12.283464 a 1.889764,1.889764 0 0 1 1.889764,1.8898 v 4.7244 h 9.448819 v -4.7244 a 1.889764,1.889764 0 0 1 1.889764,-1.8898 h 12.283464 v -17.0078 H 29.291339 a 1.889764,1.889764 0 0 1 -1.889764,-1.8898 v -4.7244 h -9.448819 v 4.7244 a 1.889764,1.889764 0 0 1 -1.889764,1.8898 H 3.779528 Z"
           style="fill:none;stroke:#000000"
           id="path24" /><path
           d="M 86.929134,1170.7087 H 74.645669 a 1.889764,1.889764 0 0 1 -1.889763,-1.8898 v -4.7244 h -9.448819 v 4.7244 a 1.889764,1.889764 0 0 1 -1.889764,1.8898 H 49.133858 v 17.0078 h 12.283465 a 1.889764,1.889764 0 0 1 1.889764,1.8898 v 4.7244 h 9.448819 v -4.7244 a 1.889764,1.889764 0 0 1 1.889763,-1.8898 h 12.283465 z"
           style="fill:none;stroke:#000000"
           id="path25" /><path
           d="m 72.755906,1131.0236 v -4.7244 h -9.448819 v 4.7244 a 1.889764,1.889764 0 0 1 -1.889764,1.8898 H 49.133858 v 17.0079 h 12.283465 a 1.889764,1.889764 0 0 1 1.889764,1.8897 v 4.7244 h 9.448819 v -4.7244 a 1.889764,1.889764 0 0 1 1.889763,-1.8897 h 12.283465 v -17.0079 H 74.645669 a 1.889764,1.889764 0 0 1 -1.889763,-1.8898 z"
           style="fill:none;stroke:#000000"
           id="path26" /><path
           d="M -35.905512,1224.5669 V 1092.2835 H 175.74803 v 132.2834 z"
           style="fill:none;stroke:#000000"
           id="path27" /></g></g></g><g
     inkscape:groupmode="layer"
     id="layer2"
     inkscape:label="CUT_LAYER"
     style="stroke-width:0.125;stroke-dasharray:none"><circle
       style="fill:#ff0000;stroke:#ff0000;stroke-width:0.125;stroke-dasharray:none"
       id="path28"
       cx="72.981834"
       cy="230.73192"
       r="0.32471421" /><text
       xml:space="preserve"
       style="font-style:normal;font-variant:normal;font-weight:normal;font-stretch:condensed;font-size:4.23333px;line-height:3.93094px;font-family:Arial;-inkscape-font-specification:'Arial Condensed';text-align:center;letter-spacing:-0.015875px;word-spacing:0px;text-anchor:middle;white-space:pre;inline-size:7.17414;display:inline;fill:#ff0000;fill-opacity:1;stroke:#ff0000;stroke-width:0.125;stroke-dasharray:none;stroke-opacity:1"
       x="55.187458"
       y="222.46428"
       id="text1"
       transform="translate(-0.12245739,-0.24491479)"><tspan
         x="55.187458"
         y="222.46428"
         id="tspan11">AP</tspan></text><text
       xml:space="preserve"
       style="font-style:normal;font-variant:normal;font-weight:normal;font-stretch:condensed;font-size:4.23333px;line-height:3.93094px;font-family:Arial;-inkscape-font-specification:'Arial Condensed';text-align:center;letter-spacing:-0.015875px;word-spacing:0px;text-anchor:middle;fill:#ff0000;fill-opacity:1;stroke:#ff0000;stroke-width:0.125;stroke-opacity:1;stroke-dasharray:none"
       x="66.984184"
       y="222.21936"
       id="text3"><tspan
         sodipodi:role="line"
         id="tspan3"
         style="font-size:4.23333px;line-height:3.93094px;fill:#ff0000;fill-opacity:1;stroke:#ff0000;stroke-width:0.125;stroke-opacity:1;stroke-dasharray:none"
         x="66.97625"
         y="222.21936">HDG</tspan></text><text
       xml:space="preserve"
       style="font-style:normal;font-variant:normal;font-weight:normal;font-stretch:condensed;font-size:4.23333px;line-height:3.93094px;font-family:Arial;-inkscape-font-specification:'Arial Condensed';text-align:center;letter-spacing:-0.015875px;word-spacing:0px;text-anchor:middle;white-space:pre;inline-size:7.17414;display:inline;fill:#ff0000;fill-opacity:1;stroke:#ff0000;stroke-width:0.125;stroke-dasharray:none;stroke-opacity:1"
       x="55.187458"
       y="222.46428"
       id="text4"
       transform="translate(23.838373,-0.24491479)"><tspan
         x="55.187458"
         y="222.46428"
         id="tspan12">NAV</tspan></text><text
       xml:space="preserve"
       style="font-style:normal;font-variant:normal;font-weight:normal;font-stretch:condensed;font-size:4.23333px;line-height:3.93094px;font-family:Arial;-inkscape-font-specification:'Arial Condensed';text-align:center;letter-spacing:-0.015875px;word-spacing:0px;text-anchor:middle;fill:#ff0000;fill-opacity:1;stroke:#ff0000;stroke-width:0.125;stroke-opacity:1;stroke-dasharray:none"
       x="90.945015"
       y="222.21936"
       id="text5"><tspan
         sodipodi:role="line"
         id="tspan5"
         style="font-size:4.23333px;line-height:3.93094px;fill:#ff0000;fill-opacity:1;stroke:#ff0000;stroke-width:0.125;stroke-opacity:1;stroke-dasharray:none"
         x="90.93708"
         y="222.21936">APR</tspan></text><text
       xml:space="preserve"
       style="font-style:normal;font-variant:normal;font-weight:normal;font-stretch:condensed;font-size:4.23333px;line-height:3.93094px;font-family:Arial;-inkscape-font-specification:'Arial Condensed';text-align:center;letter-spacing:-0.015875px;word-spacing:0px;text-anchor:middle;white-space:pre;inline-size:7.17414;display:inline;fill:#ff0000;fill-opacity:1;stroke:#ff0000;stroke-width:0.125;stroke-dasharray:none;stroke-opacity:1"
       x="55.187458"
       y="222.46428"
       id="text1-8"
       transform="translate(-0.19888362,9.8073993)"><tspan
         x="55.187458"
         y="222.46428"
         id="tspan13">REV</tspan></text><text
       xml:space="preserve"
       style="font-style:normal;font-variant:normal;font-weight:normal;font-stretch:condensed;font-size:4.23333px;line-height:3.93094px;font-family:Arial;-inkscape-font-specification:'Arial Condensed';text-align:center;letter-spacing:-0.015875px;word-spacing:0px;text-anchor:middle;fill:#ff0000;fill-opacity:1;stroke:#ff0000;stroke-width:0.125;stroke-opacity:1;stroke-dasharray:none"
       x="66.907761"
       y="232.27168"
       id="text3-1"><tspan
         sodipodi:role="line"
         id="tspan3-9"
         style="font-size:4.23333px;line-height:3.93094px;fill:#ff0000;fill-opacity:1;stroke:#ff0000;stroke-width:0.125;stroke-opacity:1;stroke-dasharray:none"
         x="66.899826"
         y="232.27168">ALT</tspan></text><text
       xml:space="preserve"
       style="font-style:normal;font-variant:normal;font-weight:normal;font-stretch:condensed;font-size:4.23333px;line-height:3.93094px;font-family:Arial;-inkscape-font-specification:'Arial Condensed';text-align:center;letter-spacing:-0.015875px;word-spacing:0px;text-anchor:middle;white-space:pre;inline-size:7.17414;display:inline;fill:#ff0000;fill-opacity:1;stroke:#ff0000;stroke-width:0.125;stroke-dasharray:none;stroke-opacity:1"
       x="55.187458"
       y="222.46428"
       id="text4-9"
       transform="translate(23.761946,9.8073993)"><tspan
         x="55.187458"
         y="222.46428"
         id="tspan14">UP</tspan></text><text
       xml:space="preserve"
       style="font-style:normal;font-variant:normal;font-weight:normal;font-stretch:condensed;font-size:4.23333px;line-height:3.93094px;font-family:Arial;-inkscape-font-specification:'Arial Condensed';text-align:center;letter-spacing:-0.015875px;word-spacing:0px;text-anchor:middle;fill:#ff0000;fill-opacity:1;stroke:#ff0000;stroke-width:0.125;stroke-opacity:1;stroke-dasharray:none"
       x="90.868591"
       y="232.27168"
       id="text5-4"><tspan
         sodipodi:role="line"
         id="tspan5-6"
         style="font-size:4.23333px;line-height:3.93094px;fill:#ff0000;fill-opacity:1;stroke:#ff0000;stroke-width:0.125;stroke-opacity:1;stroke-dasharray:none"
         x="90.860657"
         y="232.27168">DN</tspan></text><text
       xml:space="preserve"
       style="font-style:normal;font-variant:normal;font-weight:normal;font-stretch:condensed;font-size:4.23333px;line-height:3.93094px;font-family:Arial;-inkscape-font-specification:'Arial Condensed';text-align:center;letter-spacing:-0.015875px;word-spacing:0px;text-anchor:middle;white-space:pre;inline-size:8.64363;display:inline;fill:#ff0000;fill-opacity:1;stroke:#ff0000;stroke-width:0.125;stroke-dasharray:none;stroke-opacity:1"
       x="55.187458"
       y="222.46428"
       id="text7"
       transform="translate(-0.19888362,19.726448)"><tspan
         x="55.187458"
         y="222.46428"
         id="tspan15">ARM</tspan></text><text
       xml:space="preserve"
       style="font-style:normal;font-variant:normal;font-weight:normal;font-stretch:condensed;font-size:4.23333px;line-height:3.93094px;font-family:Arial;-inkscape-font-specification:'Arial Condensed';text-align:center;letter-spacing:-0.015875px;word-spacing:0px;text-anchor:middle;white-space:pre;inline-size:7.17414;display:inline;fill:#ff0000;fill-opacity:1;stroke:#ff0000;stroke-width:0.125;stroke-dasharray:none;stroke-opacity:1"
       x="55.187458"
       y="222.46428"
       id="text9"
       transform="translate(23.761946,19.726448)"><tspan
         x="55.187458"
         y="222.46428"
         id="tspan16">UP</tspan></text><text
       xml:space="preserve"
       style="font-style:normal;font-variant:normal;font-weight:normal;font-stretch:condensed;font-size:4.23333px;line-height:3.93094px;font-family:Arial;-inkscape-font-specification:'Arial Condensed';text-align:center;letter-spacing:-0.015875px;word-spacing:0px;text-anchor:middle;fill:#ff0000;fill-opacity:1;stroke:#ff0000;stroke-width:0.125;stroke-opacity:1;stroke-dasharray:none"
       x="90.868591"
       y="242.19073"
       id="text10"><tspan
         sodipodi:role="line"
         id="tspan10"
         style="font-size:4.23333px;line-height:3.93094px;fill:#ff0000;fill-opacity:1;stroke:#ff0000;stroke-width:0.125;stroke-opacity:1;stroke-dasharray:none"
         x="90.860657"
         y="242.19073">DN</tspan></text><text
       xml:space="preserve"
       style="font-style:normal;font-variant:normal;font-weight:normal;font-stretch:condensed;font-size:4.23333px;line-height:3.93094px;font-family:Arial;-inkscape-font-specification:'Arial Condensed';text-align:center;letter-spacing:-0.0564887px;word-spacing:0px;text-anchor:middle;white-space:pre;inline-size:11.8186;display:inline;fill:#ff0000;fill-opacity:1;stroke:#ff0000;stroke-width:0.133438;stroke-dasharray:none;stroke-opacity:1"
       x="55.187458"
       y="222.46428"
       id="text8"
       transform="matrix(0.87752945,0,0,1,18.573751,19.726448)"><tspan
         x="55.187458"
         y="222.46428"
         id="tspan17">BARO</tspan></text><circle
       style="fill:#ff0000;stroke:#ff0000;stroke-width:0.125;stroke-dasharray:none"
       id="circle29"
       cx="100.38116"
       cy="246.60678"
       r="0.32471421" /><circle
       style="fill:#ff0000;stroke:#ff0000;stroke-width:0.125;stroke-dasharray:none"
       id="circle30"
       cx="100.38116"
       cy="213.91443"
       r="0.32471421" /><circle
       style="fill:#ff0000;stroke:#ff0000;stroke-width:0.125;stroke-dasharray:none"
       id="circle31"
       cx="46.664833"
       cy="246.60678"
       r="0.32471421" /><circle
       style="fill:#ff0000;stroke:#ff0000;stroke-width:0.125;stroke-dasharray:none"
       id="circle32"
       cx="46.664833"
       cy="213.91443"
       r="0.32471421" /></g></svg>
